<svg xmlns="http://www.w3.org/2000/svg" viewBox="0 0 679.67 646.5"><defs><style>.cls-1{fill:none;}.cls-1,.cls-2{stroke:#000;stroke-miterlimit:10;stroke-width:15px;}.cls-2{fill:#fff;}.cls-3{font-size:329.43px;font-family:MyriadPro-Regular, Myriad Pro;}</style></defs><g id="Layer_2" data-name="Layer 2"><g id="Layer_1-2" data-name="Layer 1"><path class="cls-1" d="M534.67,89.11V90.8c0,.94-18,1.7-40,1.7h-447a40.12,40.12,0,0,1-40-40v-5a40.12,40.12,0,0,1,40-40h447c22,0,40,.82,40,1.82v1.81"/><line class="cls-1" x1="524.88" y1="9.5" x2="524.88" y2="90.37"/><path class="cls-1" d="M580.5,185.28V187c0,.93-18,1.7-40,1.7H93.5a40.12,40.12,0,0,1-40-40v-5a40.12,40.12,0,0,1,40-40h447c22,0,40,.81,40,1.81v1.82"/><line class="cls-1" x1="570.71" y1="105.67" x2="570.71" y2="186.53"/><path class="cls-1" d="M534.5,281.28V283c0,.93-18,1.7-40,1.7H47.5a40.12,40.12,0,0,1-40-40v-5a40.12,40.12,0,0,1,40-40h447c22,0,40,.81,40,1.81v1.82"/><line class="cls-1" x1="524.71" y1="201.67" x2="524.71" y2="282.53"/><path class="cls-1" d="M580.5,377.28V379c0,.93-18,1.7-40,1.7H93.5a40.12,40.12,0,0,1-40-40v-5a40.12,40.12,0,0,1,40-40h447c22,0,40,.81,40,1.81v1.82"/><line class="cls-1" x1="570.71" y1="297.67" x2="570.71" y2="378.53"/><path class="cls-1" d="M534.5,473.28V475c0,.93-18,1.7-40,1.7H47.5a40.12,40.12,0,0,1-40-40v-5a40.12,40.12,0,0,1,40-40h447c22,0,40,.81,40,1.81v1.82"/><line class="cls-1" x1="524.71" y1="393.67" x2="524.71" y2="474.53"/><rect class="cls-2" x="285.17" y="252" width="387" height="387" rx="20"/><text class="cls-3" transform="translate(379.33 529.2)">+</text></g></g></svg>