<svg xmlns="http://www.w3.org/2000/svg" viewBox="0 0 735.67 648.42"><defs><style>.cls-1{fill:none;}.cls-1,.cls-2{stroke:#000;stroke-miterlimit:10;stroke-width:15px;}.cls-3{fill:#fff;}</style></defs><g id="Layer_2" data-name="Layer 2"><g id="Layer_1-2" data-name="Layer 1"><path class="cls-1" d="M534.67,89.11V90.8c0,.94-18,1.7-40,1.7h-447a40.12,40.12,0,0,1-40-40v-5a40.12,40.12,0,0,1,40-40h447c22,0,40,.82,40,1.82v1.81"/><line class="cls-1" x1="524.88" y1="9.5" x2="524.88" y2="90.37"/><path class="cls-1" d="M580.5,185.28V187c0,.93-18,1.7-40,1.7H93.5a40.12,40.12,0,0,1-40-40v-5a40.12,40.12,0,0,1,40-40h447c22,0,40,.81,40,1.81v1.82"/><line class="cls-1" x1="570.71" y1="105.67" x2="570.71" y2="186.53"/><path class="cls-1" d="M534.5,281.28V283c0,.93-18,1.7-40,1.7H47.5a40.12,40.12,0,0,1-40-40v-5a40.12,40.12,0,0,1,40-40h447c22,0,40,.81,40,1.81v1.82"/><line class="cls-1" x1="524.71" y1="201.67" x2="524.71" y2="282.53"/><path class="cls-1" d="M580.5,377.28V379c0,.93-18,1.7-40,1.7H93.5a40.12,40.12,0,0,1-40-40v-5a40.12,40.12,0,0,1,40-40h447c22,0,40,.81,40,1.81v1.82"/><line class="cls-1" x1="570.71" y1="297.67" x2="570.71" y2="378.53"/><path class="cls-1" d="M534.5,473.28V475c0,.93-18,1.7-40,1.7H47.5a40.12,40.12,0,0,1-40-40v-5a40.12,40.12,0,0,1,40-40h447c22,0,40,.81,40,1.81v1.82"/><line class="cls-1" x1="524.71" y1="393.67" x2="524.71" y2="474.53"/><rect class="cls-2" x="341.17" y="253.92" width="387" height="387" rx="20"/><rect class="cls-3" x="468.67" y="294.42" width="212" height="43" rx="20.38"/><rect class="cls-3" x="471.67" y="383.42" width="212" height="43" rx="20.38"/><rect class="cls-3" x="471.67" y="472.42" width="212" height="43" rx="20.38"/><rect class="cls-3" x="471.67" y="561.42" width="212" height="43" rx="20.38"/><circle class="cls-3" cx="401.67" cy="315.42" r="24"/><circle class="cls-3" cx="401.67" cy="404.42" r="24"/><circle class="cls-3" cx="401.67" cy="493.42" r="24"/><circle class="cls-3" cx="401.67" cy="582.42" r="24"/></g></g></svg>